<svg width="18" height="16" viewBox="0 0 18 16" fill="none" xmlns="http://www.w3.org/2000/svg">
<path d="M8.40886 14.1096L8.40742 14.1083C6.14253 12.0545 4.34325 10.4181 3.0985 8.8952C1.86475 7.38579 1.28064 6.11048 1.28064 4.79564C1.28064 2.65484 2.94181 1 5.07628 1C6.29114 1 7.4737 1.57073 8.24115 2.46491L8.99999 3.34905L9.75882 2.46491C10.5263 1.57073 11.7088 1 12.9237 1C15.0582 1 16.7193 2.65484 16.7193 4.79564C16.7193 6.11048 16.1352 7.38579 14.9015 8.8952C13.6567 10.4181 11.8574 12.0545 9.59255 14.1083L9.59111 14.1096L8.99999 14.6477L8.40886 14.1096Z" stroke="#C0C0CC" stroke-width="2"/>
</svg>
